<svg id="bitcoin" fill="none" viewBox="0 0 48 48" xmlns="http://www.w3.org/2000/svg"><path d="m29.2479 2.67481c-11.8-3.000002-23.69998 4.3-26.59998 15.99999-2.900002 11.8 4.2 23.7 15.99998 26.7 11.8 3 23.7-4.2 26.7-16 2.9-11.8-4.3-23.69999-16.1-26.69999zm6.1 17.59999c-.3 2.5-1.7 3.8-3.6 4.2 2.6 1.3 3.9 3.3 2.6 6.9-1.5 4.4-5.2 4.7-10 3.9l-1.3 4.7-2.8-.9 1.2-4.6c-.8-.2-1.5-.4-2.3-.5l-1.2 4.6-2.8-.8 1.2-4.7c-.6-.2-1.3-.3-2-.5l-3.6-1 1.4-3.2 2 .5c.8.2 1.2-.3 1.3-.6l3.1-12.7c0-.6-.2-1.4-1.3-1.6l-2-.5.8-3 3.9 1c.5.1 1.2.3 1.8.4l1.2-4.59999 2.7.7-1.2 4.49999c.8.2 1.5.3 2.3.5l1.1-4.49999 2.8.8-1.2 4.59999c3.7 1.2 6.4 3 5.9 6.4z" fill="#fc932b"/><path d="m35.3479 20.2748c-.3 2.5-1.7 3.8-3.6 4.2 2.6 1.3 3.9 3.3 2.6 6.9-1.5 4.4-5.2 4.7-10 3.9l-1.3 4.7-2.8-.9 1.2-4.6c-.8-.2-1.5-.4-2.3-.5l-1.2 4.6-2.8-.8 1.2-4.7c-.6-.2-1.3-.3-2-.5l-3.6-1 1.4-3.2 2 .5c.8.2 1.2-.3 1.3-.6l3.1-12.7c0-.6-.2-1.4-1.3-1.6l-2-.5.8-3 3.9 1c.5.1 1.2.3 1.8.4l1.2-4.60002 2.7.7-1.2 4.50002c.8.2 1.5.3 2.3.5l1.1-4.50002 2.8.8-1.2 4.60002c3.7 1.2 6.4 3 5.9 6.4z" fill="#fff"/><g fill="#fc932b"><path d="m21.6479 24.7748-1.5 6.2c1.9.4 7.8 2.4 8.7-1.2s-5.2-4.5-7.2-5z"/><path d="m23.8479 16.2748-1.4 5.7c1.6.4 6.5 2 7.3-1.2.7-3.3-4.3-4-5.9-4.5z"/></g></svg>